%TF.GenerationSoftware,KiCad,Pcbnew,(5.1.9)-1*%
%TF.CreationDate,2021-02-27T16:08:43-06:00*%
%TF.ProjectId,joy-esd-v2,6a6f792d-6573-4642-9d76-322e6b696361,rev?*%
%TF.SameCoordinates,Original*%
%TF.FileFunction,Legend,Top*%
%TF.FilePolarity,Positive*%
%FSLAX46Y46*%
G04 Gerber Fmt 4.6, Leading zero omitted, Abs format (unit mm)*
G04 Created by KiCad (PCBNEW (5.1.9)-1) date 2021-02-27 16:08:43*
%MOMM*%
%LPD*%
G01*
G04 APERTURE LIST*
%ADD10C,0.200000*%
%ADD11C,0.127000*%
%ADD12C,2.200000*%
%ADD13R,1.360000X0.600000*%
G04 APERTURE END LIST*
D10*
X153535619Y-83018380D02*
X153535619Y-83732666D01*
X153488000Y-83875523D01*
X153392761Y-83970761D01*
X153249904Y-84018380D01*
X153154666Y-84018380D01*
X154154666Y-84018380D02*
X154059428Y-83970761D01*
X154011809Y-83923142D01*
X153964190Y-83827904D01*
X153964190Y-83542190D01*
X154011809Y-83446952D01*
X154059428Y-83399333D01*
X154154666Y-83351714D01*
X154297523Y-83351714D01*
X154392761Y-83399333D01*
X154440380Y-83446952D01*
X154488000Y-83542190D01*
X154488000Y-83827904D01*
X154440380Y-83923142D01*
X154392761Y-83970761D01*
X154297523Y-84018380D01*
X154154666Y-84018380D01*
X154821333Y-83351714D02*
X155059428Y-84018380D01*
X155297523Y-83351714D02*
X155059428Y-84018380D01*
X154964190Y-84256476D01*
X154916571Y-84304095D01*
X154821333Y-84351714D01*
X156440380Y-83494571D02*
X156773714Y-83494571D01*
X156916571Y-84018380D02*
X156440380Y-84018380D01*
X156440380Y-83018380D01*
X156916571Y-83018380D01*
X157297523Y-83970761D02*
X157440380Y-84018380D01*
X157678476Y-84018380D01*
X157773714Y-83970761D01*
X157821333Y-83923142D01*
X157868952Y-83827904D01*
X157868952Y-83732666D01*
X157821333Y-83637428D01*
X157773714Y-83589809D01*
X157678476Y-83542190D01*
X157488000Y-83494571D01*
X157392761Y-83446952D01*
X157345142Y-83399333D01*
X157297523Y-83304095D01*
X157297523Y-83208857D01*
X157345142Y-83113619D01*
X157392761Y-83066000D01*
X157488000Y-83018380D01*
X157726095Y-83018380D01*
X157868952Y-83066000D01*
X158297523Y-84018380D02*
X158297523Y-83018380D01*
X158535619Y-83018380D01*
X158678476Y-83066000D01*
X158773714Y-83161238D01*
X158821333Y-83256476D01*
X158868952Y-83446952D01*
X158868952Y-83589809D01*
X158821333Y-83780285D01*
X158773714Y-83875523D01*
X158678476Y-83970761D01*
X158535619Y-84018380D01*
X158297523Y-84018380D01*
X159964190Y-83351714D02*
X160202285Y-84018380D01*
X160440380Y-83351714D01*
X160773714Y-83113619D02*
X160821333Y-83066000D01*
X160916571Y-83018380D01*
X161154666Y-83018380D01*
X161249904Y-83066000D01*
X161297523Y-83113619D01*
X161345142Y-83208857D01*
X161345142Y-83304095D01*
X161297523Y-83446952D01*
X160726095Y-84018380D01*
X161345142Y-84018380D01*
X161773714Y-83923142D02*
X161821333Y-83970761D01*
X161773714Y-84018380D01*
X161726095Y-83970761D01*
X161773714Y-83923142D01*
X161773714Y-84018380D01*
X162440380Y-83018380D02*
X162535619Y-83018380D01*
X162630857Y-83066000D01*
X162678476Y-83113619D01*
X162726095Y-83208857D01*
X162773714Y-83399333D01*
X162773714Y-83637428D01*
X162726095Y-83827904D01*
X162678476Y-83923142D01*
X162630857Y-83970761D01*
X162535619Y-84018380D01*
X162440380Y-84018380D01*
X162345142Y-83970761D01*
X162297523Y-83923142D01*
X162249904Y-83827904D01*
X162202285Y-83637428D01*
X162202285Y-83399333D01*
X162249904Y-83208857D01*
X162297523Y-83113619D01*
X162345142Y-83066000D01*
X162440380Y-83018380D01*
D11*
%TO.C,U2*%
X156982709Y-90594000D02*
G75*
G03*
X156982709Y-90594000I-70709J0D01*
G01*
X158632000Y-93224000D02*
X160392000Y-93224000D01*
X160392000Y-90164000D02*
X158632000Y-90164000D01*
%TO.C,U1*%
X154816709Y-92794000D02*
G75*
G03*
X154816709Y-92794000I-70709J0D01*
G01*
X153026000Y-90164000D02*
X151266000Y-90164000D01*
X151266000Y-93224000D02*
X153026000Y-93224000D01*
%TD*%
%LPC*%
%TO.C,TP1*%
G36*
G01*
X155456000Y-93206000D02*
X155456000Y-91706000D01*
G75*
G02*
X155706000Y-91456000I250000J0D01*
G01*
X156206000Y-91456000D01*
G75*
G02*
X156456000Y-91706000I0J-250000D01*
G01*
X156456000Y-93206000D01*
G75*
G02*
X156206000Y-93456000I-250000J0D01*
G01*
X155706000Y-93456000D01*
G75*
G02*
X155456000Y-93206000I0J250000D01*
G01*
G37*
%TD*%
D12*
%TO.C,J1*%
X152145000Y-88319338D03*
X154915000Y-88319338D03*
X157685000Y-88319338D03*
X160455000Y-88319338D03*
X150760000Y-85479338D03*
X153530000Y-85479338D03*
X156300000Y-85479338D03*
X159070000Y-85479338D03*
X161840000Y-85479338D03*
%TD*%
D13*
%TO.C,U2*%
X160687000Y-90744000D03*
X160687000Y-92644000D03*
X158337000Y-92644000D03*
X158337000Y-91694000D03*
X158337000Y-90744000D03*
%TD*%
%TO.C,U1*%
X150971000Y-92644000D03*
X150971000Y-90744000D03*
X153321000Y-90744000D03*
X153321000Y-91694000D03*
X153321000Y-92644000D03*
%TD*%
M02*
