%TF.GenerationSoftware,KiCad,Pcbnew,(5.1.9)-1*%
%TF.CreationDate,2022-04-17T16:00:32-05:00*%
%TF.ProjectId,joy-esd-v2,6a6f792d-6573-4642-9d76-322e6b696361,rev?*%
%TF.SameCoordinates,Original*%
%TF.FileFunction,Copper,L1,Top*%
%TF.FilePolarity,Positive*%
%FSLAX46Y46*%
G04 Gerber Fmt 4.6, Leading zero omitted, Abs format (unit mm)*
G04 Created by KiCad (PCBNEW (5.1.9)-1) date 2022-04-17 16:00:32*
%MOMM*%
%LPD*%
G01*
G04 APERTURE LIST*
%TA.AperFunction,SMDPad,CuDef*%
%ADD10R,1.200000X0.600000*%
%TD*%
%TA.AperFunction,ComponentPad*%
%ADD11C,2.200000*%
%TD*%
%TA.AperFunction,Conductor*%
%ADD12C,0.600000*%
%TD*%
%TA.AperFunction,Conductor*%
%ADD13C,0.500000*%
%TD*%
%TA.AperFunction,Conductor*%
%ADD14C,1.000000*%
%TD*%
%TA.AperFunction,Conductor*%
%ADD15C,0.025400*%
%TD*%
%TA.AperFunction,Conductor*%
%ADD16C,0.100000*%
%TD*%
G04 APERTURE END LIST*
D10*
%TO.P,D2,6*%
%TO.N,Net-(D2-Pad6)*%
X160762000Y-90744000D03*
%TO.P,D2,5*%
%TO.N,Net-(D2-Pad5)*%
X160762000Y-91694000D03*
%TO.P,D2,4*%
%TO.N,Net-(D2-Pad4)*%
X160762000Y-92644000D03*
%TO.P,D2,3*%
%TO.N,Net-(D2-Pad3)*%
X158262000Y-92644000D03*
%TO.P,D2,2*%
%TO.N,GND*%
X158262000Y-91694000D03*
%TO.P,D2,1*%
%TO.N,Net-(D2-Pad1)*%
X158262000Y-90744000D03*
%TD*%
%TO.P,D1,6*%
%TO.N,Net-(D1-Pad6)*%
X150896000Y-92644000D03*
%TO.P,D1,5*%
%TO.N,Net-(D1-Pad5)*%
X150896000Y-91694000D03*
%TO.P,D1,4*%
%TO.N,Net-(D1-Pad4)*%
X150896000Y-90744000D03*
%TO.P,D1,3*%
%TO.N,Net-(D1-Pad3)*%
X153396000Y-90744000D03*
%TO.P,D1,2*%
%TO.N,GND*%
X153396000Y-91694000D03*
%TO.P,D1,1*%
%TO.N,Net-(D1-Pad1)*%
X153396000Y-92644000D03*
%TD*%
%TO.P,TP1,1*%
%TO.N,GND*%
%TA.AperFunction,SMDPad,CuDef*%
G36*
G01*
X155456000Y-93206000D02*
X155456000Y-91706000D01*
G75*
G02*
X155706000Y-91456000I250000J0D01*
G01*
X156206000Y-91456000D01*
G75*
G02*
X156456000Y-91706000I0J-250000D01*
G01*
X156456000Y-93206000D01*
G75*
G02*
X156206000Y-93456000I-250000J0D01*
G01*
X155706000Y-93456000D01*
G75*
G02*
X155456000Y-93206000I0J250000D01*
G01*
G37*
%TD.AperFunction*%
%TD*%
D11*
%TO.P,J1,9*%
%TO.N,Net-(D1-Pad3)*%
X152145000Y-88319338D03*
%TO.P,J1,8*%
%TO.N,GND*%
X154915000Y-88319338D03*
%TO.P,J1,7*%
%TO.N,Net-(D2-Pad1)*%
X157685000Y-88319338D03*
%TO.P,J1,6*%
%TO.N,Net-(D2-Pad6)*%
X160455000Y-88319338D03*
%TO.P,J1,5*%
%TO.N,Net-(D1-Pad4)*%
X150760000Y-85479338D03*
%TO.P,J1,4*%
%TO.N,Net-(D1-Pad6)*%
X153530000Y-85479338D03*
%TO.P,J1,3*%
%TO.N,Net-(D1-Pad1)*%
X156300000Y-85479338D03*
%TO.P,J1,2*%
%TO.N,Net-(D2-Pad3)*%
X159070000Y-85479338D03*
%TO.P,J1,1*%
%TO.N,Net-(D2-Pad4)*%
X161840000Y-85479338D03*
%TD*%
D12*
%TO.N,GND*%
X154601000Y-91694000D02*
X154915000Y-91380000D01*
X154915000Y-89552000D02*
X154915000Y-88319338D01*
X157057000Y-91694000D02*
X154915000Y-89552000D01*
X158337000Y-91694000D02*
X157057000Y-91694000D01*
X154915000Y-90703000D02*
X155194000Y-90424000D01*
X154915000Y-91380000D02*
X154915000Y-90703000D01*
X154915000Y-90703000D02*
X154915000Y-88319338D01*
X155194000Y-90424000D02*
X155194000Y-90932000D01*
X155194000Y-90932000D02*
X155448000Y-90678000D01*
X155194000Y-90932000D02*
X155702000Y-90932000D01*
X155702000Y-90932000D02*
X155448000Y-91186000D01*
X155109000Y-91186000D02*
X154915000Y-91380000D01*
X155448000Y-91186000D02*
X155109000Y-91186000D01*
X155109000Y-91186000D02*
X155956000Y-91186000D01*
X155956000Y-91186000D02*
X156210000Y-91440000D01*
D13*
X154178000Y-91677002D02*
X154178000Y-91694000D01*
X154915000Y-90703000D02*
X154915000Y-90940002D01*
D12*
X154178000Y-91694000D02*
X154601000Y-91694000D01*
X153321000Y-91694000D02*
X154178000Y-91694000D01*
D13*
X154915000Y-90940002D02*
X154178000Y-91677002D01*
X155956000Y-92456000D02*
X155194000Y-91694000D01*
D12*
X154601000Y-91694000D02*
X155194000Y-91694000D01*
D13*
X156718000Y-91694000D02*
X156972000Y-91694000D01*
X155956000Y-92456000D02*
X156718000Y-91694000D01*
D12*
X156972000Y-91694000D02*
X157057000Y-91694000D01*
X155194000Y-91694000D02*
X156972000Y-91694000D01*
D14*
X154915000Y-88319338D02*
X154915000Y-91380000D01*
D13*
%TO.N,Net-(D1-Pad6)*%
X151979999Y-83929337D02*
X153530000Y-85479338D01*
X149209999Y-84735337D02*
X150015999Y-83929337D01*
X149209999Y-91805999D02*
X149209999Y-84735337D01*
X150015999Y-83929337D02*
X151979999Y-83929337D01*
X150048000Y-92644000D02*
X149209999Y-91805999D01*
X150971000Y-92644000D02*
X150048000Y-92644000D01*
D12*
%TO.N,Net-(D1-Pad4)*%
X150266400Y-85972938D02*
X150760000Y-85479338D01*
X150266400Y-90039400D02*
X150266400Y-85972938D01*
X150971000Y-90744000D02*
X150266400Y-90039400D01*
%TO.N,Net-(D1-Pad3)*%
X152145000Y-89568000D02*
X153321000Y-90744000D01*
X152145000Y-88319338D02*
X152145000Y-89568000D01*
D13*
%TO.N,Net-(D1-Pad1)*%
X149733000Y-83210400D02*
X154031062Y-83210400D01*
X148488400Y-84455000D02*
X149733000Y-83210400D01*
X154031062Y-83210400D02*
X156300000Y-85479338D01*
X148488400Y-92205402D02*
X148488400Y-84455000D01*
X149678798Y-93395800D02*
X148488400Y-92205402D01*
X152823200Y-93395800D02*
X149678798Y-93395800D01*
X153321000Y-92898000D02*
X152823200Y-93395800D01*
D12*
%TO.N,Net-(D2-Pad6)*%
X160687000Y-88551338D02*
X160455000Y-88319338D01*
X160687000Y-90744000D02*
X160687000Y-88551338D01*
D13*
%TO.N,Net-(D2-Pad4)*%
X160687000Y-92644000D02*
X161102000Y-92644000D01*
X161522002Y-92644000D02*
X160762000Y-92644000D01*
X162306000Y-91860002D02*
X161522002Y-92644000D01*
X162306000Y-85945338D02*
X162306000Y-91860002D01*
X161840000Y-85479338D02*
X162306000Y-85945338D01*
%TO.N,Net-(D2-Pad3)*%
X160983338Y-83566000D02*
X159070000Y-85479338D01*
X159087001Y-93394001D02*
X161761966Y-93394001D01*
X158337000Y-92644000D02*
X159087001Y-93394001D01*
X161761966Y-93394001D02*
X163390001Y-91765966D01*
X163390001Y-84650001D02*
X162306000Y-83566000D01*
X162306000Y-83566000D02*
X160983338Y-83566000D01*
X163390001Y-91765966D02*
X163390001Y-84650001D01*
D12*
%TO.N,Net-(D2-Pad1)*%
X157685000Y-90092000D02*
X158337000Y-90744000D01*
X157685000Y-88319338D02*
X157685000Y-90092000D01*
%TD*%
D15*
%TO.N,GND*%
X155889583Y-88801107D02*
X155823267Y-88931379D01*
X155753647Y-89061653D01*
X155753565Y-89061808D01*
X155689490Y-89185798D01*
X155689192Y-89186417D01*
X155635501Y-89305728D01*
X155635026Y-89306948D01*
X155596508Y-89423284D01*
X155596026Y-89425254D01*
X155577468Y-89540315D01*
X155577324Y-89543017D01*
X155583514Y-89658506D01*
X155584044Y-89661517D01*
X155619772Y-89779135D01*
X155620923Y-89781790D01*
X155690976Y-89903240D01*
X155692347Y-89905173D01*
X155793835Y-90023227D01*
X155386742Y-90430320D01*
X155176624Y-90226591D01*
X155176361Y-90226343D01*
X154983976Y-90050148D01*
X154983798Y-90049989D01*
X154814181Y-89900402D01*
X154814168Y-89900390D01*
X154663469Y-89767859D01*
X154527940Y-89642934D01*
X154403542Y-89515949D01*
X154286229Y-89377228D01*
X154171943Y-89217043D01*
X154056655Y-89025618D01*
X153940460Y-88801061D01*
X154915000Y-87787660D01*
X155889583Y-88801107D01*
%TA.AperFunction,Conductor*%
D16*
G36*
X155889583Y-88801107D02*
G01*
X155823267Y-88931379D01*
X155753647Y-89061653D01*
X155753565Y-89061808D01*
X155689490Y-89185798D01*
X155689192Y-89186417D01*
X155635501Y-89305728D01*
X155635026Y-89306948D01*
X155596508Y-89423284D01*
X155596026Y-89425254D01*
X155577468Y-89540315D01*
X155577324Y-89543017D01*
X155583514Y-89658506D01*
X155584044Y-89661517D01*
X155619772Y-89779135D01*
X155620923Y-89781790D01*
X155690976Y-89903240D01*
X155692347Y-89905173D01*
X155793835Y-90023227D01*
X155386742Y-90430320D01*
X155176624Y-90226591D01*
X155176361Y-90226343D01*
X154983976Y-90050148D01*
X154983798Y-90049989D01*
X154814181Y-89900402D01*
X154814168Y-89900390D01*
X154663469Y-89767859D01*
X154527940Y-89642934D01*
X154403542Y-89515949D01*
X154286229Y-89377228D01*
X154171943Y-89217043D01*
X154056655Y-89025618D01*
X153940460Y-88801061D01*
X154915000Y-87787660D01*
X155889583Y-88801107D01*
G37*
%TD.AperFunction*%
%TD*%
D15*
%TO.N,GND*%
X155889495Y-88801014D02*
X155790362Y-88989524D01*
X155689370Y-89156276D01*
X155592521Y-89302601D01*
X155501801Y-89437489D01*
X155501561Y-89437859D01*
X155419204Y-89569978D01*
X155418716Y-89570835D01*
X155346760Y-89709144D01*
X155346185Y-89710413D01*
X155286670Y-89863873D01*
X155286201Y-89865343D01*
X155241165Y-90042911D01*
X155240890Y-90044329D01*
X155212373Y-90254967D01*
X155212268Y-90256171D01*
X155202791Y-90496638D01*
X154627209Y-90496638D01*
X154617731Y-90256171D01*
X154617626Y-90254967D01*
X154589109Y-90044329D01*
X154588834Y-90042911D01*
X154543798Y-89865343D01*
X154543329Y-89863873D01*
X154483814Y-89710413D01*
X154483239Y-89709144D01*
X154411283Y-89570835D01*
X154410795Y-89569978D01*
X154328438Y-89437859D01*
X154328198Y-89437489D01*
X154237478Y-89302601D01*
X154140629Y-89156276D01*
X154039637Y-88989524D01*
X153940505Y-88801014D01*
X154915000Y-87787660D01*
X155889495Y-88801014D01*
%TA.AperFunction,Conductor*%
D16*
G36*
X155889495Y-88801014D02*
G01*
X155790362Y-88989524D01*
X155689370Y-89156276D01*
X155592521Y-89302601D01*
X155501801Y-89437489D01*
X155501561Y-89437859D01*
X155419204Y-89569978D01*
X155418716Y-89570835D01*
X155346760Y-89709144D01*
X155346185Y-89710413D01*
X155286670Y-89863873D01*
X155286201Y-89865343D01*
X155241165Y-90042911D01*
X155240890Y-90044329D01*
X155212373Y-90254967D01*
X155212268Y-90256171D01*
X155202791Y-90496638D01*
X154627209Y-90496638D01*
X154617731Y-90256171D01*
X154617626Y-90254967D01*
X154589109Y-90044329D01*
X154588834Y-90042911D01*
X154543798Y-89865343D01*
X154543329Y-89863873D01*
X154483814Y-89710413D01*
X154483239Y-89709144D01*
X154411283Y-89570835D01*
X154410795Y-89569978D01*
X154328438Y-89437859D01*
X154328198Y-89437489D01*
X154237478Y-89302601D01*
X154140629Y-89156276D01*
X154039637Y-88989524D01*
X153940505Y-88801014D01*
X154915000Y-87787660D01*
X155889495Y-88801014D01*
G37*
%TD.AperFunction*%
%TD*%
D15*
%TO.N,GND*%
X155889651Y-88801177D02*
X155802968Y-88975897D01*
X155721110Y-89136637D01*
X155721064Y-89136728D01*
X155648133Y-89282841D01*
X155647958Y-89283205D01*
X155584168Y-89421874D01*
X155583887Y-89422534D01*
X155529419Y-89561018D01*
X155529104Y-89561917D01*
X155484136Y-89707475D01*
X155483868Y-89708487D01*
X155448582Y-89868375D01*
X155448407Y-89869350D01*
X155422979Y-90050826D01*
X155422890Y-90051661D01*
X155407503Y-90261984D01*
X155407472Y-90262645D01*
X155402564Y-90496638D01*
X154427436Y-90496638D01*
X154422527Y-90262645D01*
X154422496Y-90261984D01*
X154407109Y-90051661D01*
X154407020Y-90050826D01*
X154381592Y-89869350D01*
X154381417Y-89868375D01*
X154346131Y-89708487D01*
X154345863Y-89707475D01*
X154300895Y-89561917D01*
X154300580Y-89561018D01*
X154246112Y-89422534D01*
X154245831Y-89421874D01*
X154182041Y-89283205D01*
X154181866Y-89282841D01*
X154108935Y-89136728D01*
X154108889Y-89136637D01*
X154027031Y-88975897D01*
X153940349Y-88801177D01*
X154915000Y-87787660D01*
X155889651Y-88801177D01*
%TA.AperFunction,Conductor*%
D16*
G36*
X155889651Y-88801177D02*
G01*
X155802968Y-88975897D01*
X155721110Y-89136637D01*
X155721064Y-89136728D01*
X155648133Y-89282841D01*
X155647958Y-89283205D01*
X155584168Y-89421874D01*
X155583887Y-89422534D01*
X155529419Y-89561018D01*
X155529104Y-89561917D01*
X155484136Y-89707475D01*
X155483868Y-89708487D01*
X155448582Y-89868375D01*
X155448407Y-89869350D01*
X155422979Y-90050826D01*
X155422890Y-90051661D01*
X155407503Y-90261984D01*
X155407472Y-90262645D01*
X155402564Y-90496638D01*
X154427436Y-90496638D01*
X154422527Y-90262645D01*
X154422496Y-90261984D01*
X154407109Y-90051661D01*
X154407020Y-90050826D01*
X154381592Y-89869350D01*
X154381417Y-89868375D01*
X154346131Y-89708487D01*
X154345863Y-89707475D01*
X154300895Y-89561917D01*
X154300580Y-89561018D01*
X154246112Y-89422534D01*
X154245831Y-89421874D01*
X154182041Y-89283205D01*
X154181866Y-89282841D01*
X154108935Y-89136728D01*
X154108889Y-89136637D01*
X154027031Y-88975897D01*
X153940349Y-88801177D01*
X154915000Y-87787660D01*
X155889651Y-88801177D01*
G37*
%TD.AperFunction*%
%TD*%
D15*
%TO.N,Net-(D1-Pad6)*%
X152252342Y-83705332D02*
X152483646Y-83742573D01*
X152676883Y-83799902D01*
X152843186Y-83873594D01*
X152993603Y-83960033D01*
X153139080Y-84055611D01*
X153290197Y-84156417D01*
X153290633Y-84156695D01*
X153457949Y-84258728D01*
X153458777Y-84259191D01*
X153653082Y-84358601D01*
X153654144Y-84359085D01*
X153878458Y-84448922D01*
X153905952Y-85855290D01*
X152501045Y-85827825D01*
X152452085Y-85618083D01*
X152437743Y-85392668D01*
X152446341Y-85166749D01*
X152464124Y-84947579D01*
X152464140Y-84947360D01*
X152477210Y-84742318D01*
X152477230Y-84741125D01*
X152471656Y-84557549D01*
X152471295Y-84554901D01*
X152433167Y-84399843D01*
X152432338Y-84397496D01*
X152431199Y-84395538D01*
X152346607Y-84276051D01*
X152344977Y-84274170D01*
X152342191Y-84272169D01*
X152197227Y-84195305D01*
X152194924Y-84194360D01*
X152192841Y-84193922D01*
X151984732Y-84168115D01*
X151984732Y-83692653D01*
X152252342Y-83705332D01*
%TA.AperFunction,Conductor*%
D16*
G36*
X152252342Y-83705332D02*
G01*
X152483646Y-83742573D01*
X152676883Y-83799902D01*
X152843186Y-83873594D01*
X152993603Y-83960033D01*
X153139080Y-84055611D01*
X153290197Y-84156417D01*
X153290633Y-84156695D01*
X153457949Y-84258728D01*
X153458777Y-84259191D01*
X153653082Y-84358601D01*
X153654144Y-84359085D01*
X153878458Y-84448922D01*
X153905952Y-85855290D01*
X152501045Y-85827825D01*
X152452085Y-85618083D01*
X152437743Y-85392668D01*
X152446341Y-85166749D01*
X152464124Y-84947579D01*
X152464140Y-84947360D01*
X152477210Y-84742318D01*
X152477230Y-84741125D01*
X152471656Y-84557549D01*
X152471295Y-84554901D01*
X152433167Y-84399843D01*
X152432338Y-84397496D01*
X152431199Y-84395538D01*
X152346607Y-84276051D01*
X152344977Y-84274170D01*
X152342191Y-84272169D01*
X152197227Y-84195305D01*
X152194924Y-84194360D01*
X152192841Y-84193922D01*
X151984732Y-84168115D01*
X151984732Y-83692653D01*
X152252342Y-83705332D01*
G37*
%TD.AperFunction*%
%TD*%
D15*
%TO.N,Net-(D1-Pad4)*%
X151414969Y-86347046D02*
X151274591Y-86450309D01*
X151137347Y-86546023D01*
X151137288Y-86546065D01*
X151011589Y-86634801D01*
X151011127Y-86635143D01*
X150898287Y-86722707D01*
X150897404Y-86723459D01*
X150798625Y-86815733D01*
X150797434Y-86817009D01*
X150713918Y-86919876D01*
X150712706Y-86921660D01*
X150645657Y-87041003D01*
X150644736Y-87043045D01*
X150595354Y-87184747D01*
X150594847Y-87186682D01*
X150564337Y-87356625D01*
X150564154Y-87358220D01*
X150554333Y-87550238D01*
X149978717Y-87550238D01*
X149970170Y-87270732D01*
X149970115Y-87269878D01*
X149945948Y-87023911D01*
X149945832Y-87023041D01*
X149910329Y-86812554D01*
X149910179Y-86811801D01*
X149867248Y-86626429D01*
X149867129Y-86625958D01*
X149820677Y-86455331D01*
X149820662Y-86455276D01*
X149774649Y-86289215D01*
X149733021Y-86117566D01*
X149699606Y-85929840D01*
X149678241Y-85715498D01*
X149673005Y-85472758D01*
X150998468Y-85004140D01*
X151414969Y-86347046D01*
%TA.AperFunction,Conductor*%
D16*
G36*
X151414969Y-86347046D02*
G01*
X151274591Y-86450309D01*
X151137347Y-86546023D01*
X151137288Y-86546065D01*
X151011589Y-86634801D01*
X151011127Y-86635143D01*
X150898287Y-86722707D01*
X150897404Y-86723459D01*
X150798625Y-86815733D01*
X150797434Y-86817009D01*
X150713918Y-86919876D01*
X150712706Y-86921660D01*
X150645657Y-87041003D01*
X150644736Y-87043045D01*
X150595354Y-87184747D01*
X150594847Y-87186682D01*
X150564337Y-87356625D01*
X150564154Y-87358220D01*
X150554333Y-87550238D01*
X149978717Y-87550238D01*
X149970170Y-87270732D01*
X149970115Y-87269878D01*
X149945948Y-87023911D01*
X149945832Y-87023041D01*
X149910329Y-86812554D01*
X149910179Y-86811801D01*
X149867248Y-86626429D01*
X149867129Y-86625958D01*
X149820677Y-86455331D01*
X149820662Y-86455276D01*
X149774649Y-86289215D01*
X149733021Y-86117566D01*
X149699606Y-85929840D01*
X149678241Y-85715498D01*
X149673005Y-85472758D01*
X150998468Y-85004140D01*
X151414969Y-86347046D01*
G37*
%TD.AperFunction*%
%TD*%
D15*
%TO.N,Net-(D1-Pad3)*%
X153119571Y-88801094D02*
X153052660Y-88931949D01*
X152981909Y-89062726D01*
X152981844Y-89062848D01*
X152916258Y-89187303D01*
X152915968Y-89187890D01*
X152860552Y-89307624D01*
X152860072Y-89308813D01*
X152819767Y-89425546D01*
X152819263Y-89427497D01*
X152799010Y-89542951D01*
X152798830Y-89545664D01*
X152803568Y-89661557D01*
X152804072Y-89664617D01*
X152838743Y-89782672D01*
X152839896Y-89785385D01*
X152909439Y-89907320D01*
X152910830Y-89909295D01*
X153012531Y-90027903D01*
X152605437Y-90434997D01*
X152395957Y-90231455D01*
X152395716Y-90231226D01*
X152204336Y-90054767D01*
X152204181Y-90054627D01*
X152035843Y-89904451D01*
X151886620Y-89771140D01*
X151752620Y-89645315D01*
X151629719Y-89517423D01*
X151513775Y-89377897D01*
X151400657Y-89217139D01*
X151286207Y-89025434D01*
X151170453Y-88801069D01*
X152145000Y-87787660D01*
X153119571Y-88801094D01*
%TA.AperFunction,Conductor*%
D16*
G36*
X153119571Y-88801094D02*
G01*
X153052660Y-88931949D01*
X152981909Y-89062726D01*
X152981844Y-89062848D01*
X152916258Y-89187303D01*
X152915968Y-89187890D01*
X152860552Y-89307624D01*
X152860072Y-89308813D01*
X152819767Y-89425546D01*
X152819263Y-89427497D01*
X152799010Y-89542951D01*
X152798830Y-89545664D01*
X152803568Y-89661557D01*
X152804072Y-89664617D01*
X152838743Y-89782672D01*
X152839896Y-89785385D01*
X152909439Y-89907320D01*
X152910830Y-89909295D01*
X153012531Y-90027903D01*
X152605437Y-90434997D01*
X152395957Y-90231455D01*
X152395716Y-90231226D01*
X152204336Y-90054767D01*
X152204181Y-90054627D01*
X152035843Y-89904451D01*
X151886620Y-89771140D01*
X151752620Y-89645315D01*
X151629719Y-89517423D01*
X151513775Y-89377897D01*
X151400657Y-89217139D01*
X151286207Y-89025434D01*
X151170453Y-88801069D01*
X152145000Y-87787660D01*
X153119571Y-88801094D01*
G37*
%TD.AperFunction*%
%TD*%
D15*
%TO.N,Net-(D1-Pad1)*%
X155107581Y-83935509D02*
X155108619Y-83936364D01*
X155280342Y-84063058D01*
X155281684Y-84063923D01*
X155442044Y-84153583D01*
X155443558Y-84154303D01*
X155597418Y-84215347D01*
X155598811Y-84215808D01*
X155751032Y-84256653D01*
X155751989Y-84256871D01*
X155907433Y-84285935D01*
X155907795Y-84285997D01*
X156071239Y-84311686D01*
X156247262Y-84342365D01*
X156440780Y-84386420D01*
X156648474Y-84449721D01*
X156675952Y-85855290D01*
X155270383Y-85827812D01*
X155207082Y-85620118D01*
X155163027Y-85426600D01*
X155132348Y-85250577D01*
X155106659Y-85087133D01*
X155106597Y-85086771D01*
X155077533Y-84931327D01*
X155077315Y-84930370D01*
X155036470Y-84778149D01*
X155036009Y-84776756D01*
X154974965Y-84622896D01*
X154974245Y-84621382D01*
X154884585Y-84461022D01*
X154883720Y-84459680D01*
X154757026Y-84287957D01*
X154756171Y-84286919D01*
X154592235Y-84107937D01*
X154928599Y-83771573D01*
X155107581Y-83935509D01*
%TA.AperFunction,Conductor*%
D16*
G36*
X155107581Y-83935509D02*
G01*
X155108619Y-83936364D01*
X155280342Y-84063058D01*
X155281684Y-84063923D01*
X155442044Y-84153583D01*
X155443558Y-84154303D01*
X155597418Y-84215347D01*
X155598811Y-84215808D01*
X155751032Y-84256653D01*
X155751989Y-84256871D01*
X155907433Y-84285935D01*
X155907795Y-84285997D01*
X156071239Y-84311686D01*
X156247262Y-84342365D01*
X156440780Y-84386420D01*
X156648474Y-84449721D01*
X156675952Y-85855290D01*
X155270383Y-85827812D01*
X155207082Y-85620118D01*
X155163027Y-85426600D01*
X155132348Y-85250577D01*
X155106659Y-85087133D01*
X155106597Y-85086771D01*
X155077533Y-84931327D01*
X155077315Y-84930370D01*
X155036470Y-84778149D01*
X155036009Y-84776756D01*
X154974965Y-84622896D01*
X154974245Y-84621382D01*
X154884585Y-84461022D01*
X154883720Y-84459680D01*
X154757026Y-84287957D01*
X154756171Y-84286919D01*
X154592235Y-84107937D01*
X154928599Y-83771573D01*
X155107581Y-83935509D01*
G37*
%TD.AperFunction*%
%TD*%
D15*
%TO.N,Net-(D2-Pad6)*%
X161508811Y-88585998D02*
X161446752Y-88806615D01*
X161377443Y-89000829D01*
X161305920Y-89170337D01*
X161234880Y-89325130D01*
X161234849Y-89325196D01*
X161167087Y-89475096D01*
X161166861Y-89475628D01*
X161105227Y-89630379D01*
X161104899Y-89631305D01*
X161052155Y-89800845D01*
X161051857Y-89801990D01*
X161010763Y-89996255D01*
X161010573Y-89997413D01*
X160983892Y-90226340D01*
X160983815Y-90227369D01*
X160974734Y-90488638D01*
X160399159Y-90488638D01*
X160389507Y-90267158D01*
X160389375Y-90265803D01*
X160359806Y-90071196D01*
X160359445Y-90069557D01*
X160311944Y-89906260D01*
X160311296Y-89904519D01*
X160247319Y-89764822D01*
X160246478Y-89763279D01*
X160167484Y-89639470D01*
X160166693Y-89638365D01*
X160074137Y-89522734D01*
X160073621Y-89522129D01*
X159968961Y-89406965D01*
X159968806Y-89406798D01*
X159853598Y-89284498D01*
X159729362Y-89147426D01*
X159603123Y-88994654D01*
X160343533Y-87799477D01*
X161508811Y-88585998D01*
%TA.AperFunction,Conductor*%
D16*
G36*
X161508811Y-88585998D02*
G01*
X161446752Y-88806615D01*
X161377443Y-89000829D01*
X161305920Y-89170337D01*
X161234880Y-89325130D01*
X161234849Y-89325196D01*
X161167087Y-89475096D01*
X161166861Y-89475628D01*
X161105227Y-89630379D01*
X161104899Y-89631305D01*
X161052155Y-89800845D01*
X161051857Y-89801990D01*
X161010763Y-89996255D01*
X161010573Y-89997413D01*
X160983892Y-90226340D01*
X160983815Y-90227369D01*
X160974734Y-90488638D01*
X160399159Y-90488638D01*
X160389507Y-90267158D01*
X160389375Y-90265803D01*
X160359806Y-90071196D01*
X160359445Y-90069557D01*
X160311944Y-89906260D01*
X160311296Y-89904519D01*
X160247319Y-89764822D01*
X160246478Y-89763279D01*
X160167484Y-89639470D01*
X160166693Y-89638365D01*
X160074137Y-89522734D01*
X160073621Y-89522129D01*
X159968961Y-89406965D01*
X159968806Y-89406798D01*
X159853598Y-89284498D01*
X159729362Y-89147426D01*
X159603123Y-88994654D01*
X160343533Y-87799477D01*
X161508811Y-88585998D01*
G37*
%TD.AperFunction*%
%TD*%
D15*
%TO.N,Net-(D2-Pad4)*%
X162926627Y-85506780D02*
X162912573Y-85751231D01*
X162881315Y-85965776D01*
X162837637Y-86152554D01*
X162785763Y-86322438D01*
X162729929Y-86486173D01*
X162729888Y-86486294D01*
X162674465Y-86654348D01*
X162674286Y-86654937D01*
X162623660Y-86837791D01*
X162623445Y-86838698D01*
X162581935Y-87047033D01*
X162581773Y-87048066D01*
X162553700Y-87292559D01*
X162553625Y-87293559D01*
X162543742Y-87572638D01*
X162068034Y-87572638D01*
X162057236Y-87372541D01*
X162057031Y-87370854D01*
X162023723Y-87195615D01*
X162023157Y-87193580D01*
X161969534Y-87048607D01*
X161968529Y-87046505D01*
X161896135Y-86925188D01*
X161894860Y-86923418D01*
X161805241Y-86819150D01*
X161804059Y-86817946D01*
X161698760Y-86724118D01*
X161697954Y-86723457D01*
X161578521Y-86633461D01*
X161578180Y-86633213D01*
X161446158Y-86540439D01*
X161303381Y-86438486D01*
X161158203Y-86326052D01*
X161616528Y-84996906D01*
X162926627Y-85506780D01*
%TA.AperFunction,Conductor*%
D16*
G36*
X162926627Y-85506780D02*
G01*
X162912573Y-85751231D01*
X162881315Y-85965776D01*
X162837637Y-86152554D01*
X162785763Y-86322438D01*
X162729929Y-86486173D01*
X162729888Y-86486294D01*
X162674465Y-86654348D01*
X162674286Y-86654937D01*
X162623660Y-86837791D01*
X162623445Y-86838698D01*
X162581935Y-87047033D01*
X162581773Y-87048066D01*
X162553700Y-87292559D01*
X162553625Y-87293559D01*
X162543742Y-87572638D01*
X162068034Y-87572638D01*
X162057236Y-87372541D01*
X162057031Y-87370854D01*
X162023723Y-87195615D01*
X162023157Y-87193580D01*
X161969534Y-87048607D01*
X161968529Y-87046505D01*
X161896135Y-86925188D01*
X161894860Y-86923418D01*
X161805241Y-86819150D01*
X161804059Y-86817946D01*
X161698760Y-86724118D01*
X161697954Y-86723457D01*
X161578521Y-86633461D01*
X161578180Y-86633213D01*
X161446158Y-86540439D01*
X161303381Y-86438486D01*
X161158203Y-86326052D01*
X161616528Y-84996906D01*
X162926627Y-85506780D01*
G37*
%TD.AperFunction*%
%TD*%
D15*
%TO.N,Net-(D2-Pad3)*%
X160777765Y-84107937D02*
X160613828Y-84286919D01*
X160612973Y-84287957D01*
X160486279Y-84459680D01*
X160485414Y-84461022D01*
X160395754Y-84621382D01*
X160395034Y-84622896D01*
X160333990Y-84776756D01*
X160333529Y-84778149D01*
X160292684Y-84930370D01*
X160292466Y-84931327D01*
X160263402Y-85086771D01*
X160263340Y-85087133D01*
X160237651Y-85250577D01*
X160206972Y-85426600D01*
X160162917Y-85620118D01*
X160099617Y-85827812D01*
X158694048Y-85855290D01*
X158721526Y-84449721D01*
X158929219Y-84386420D01*
X159122737Y-84342365D01*
X159298760Y-84311686D01*
X159462204Y-84285997D01*
X159462566Y-84285935D01*
X159618010Y-84256871D01*
X159618967Y-84256653D01*
X159771188Y-84215808D01*
X159772581Y-84215347D01*
X159926441Y-84154303D01*
X159927955Y-84153583D01*
X160088315Y-84063923D01*
X160089657Y-84063058D01*
X160261380Y-83936364D01*
X160262418Y-83935509D01*
X160441401Y-83771573D01*
X160777765Y-84107937D01*
%TA.AperFunction,Conductor*%
D16*
G36*
X160777765Y-84107937D02*
G01*
X160613828Y-84286919D01*
X160612973Y-84287957D01*
X160486279Y-84459680D01*
X160485414Y-84461022D01*
X160395754Y-84621382D01*
X160395034Y-84622896D01*
X160333990Y-84776756D01*
X160333529Y-84778149D01*
X160292684Y-84930370D01*
X160292466Y-84931327D01*
X160263402Y-85086771D01*
X160263340Y-85087133D01*
X160237651Y-85250577D01*
X160206972Y-85426600D01*
X160162917Y-85620118D01*
X160099617Y-85827812D01*
X158694048Y-85855290D01*
X158721526Y-84449721D01*
X158929219Y-84386420D01*
X159122737Y-84342365D01*
X159298760Y-84311686D01*
X159462204Y-84285997D01*
X159462566Y-84285935D01*
X159618010Y-84256871D01*
X159618967Y-84256653D01*
X159771188Y-84215808D01*
X159772581Y-84215347D01*
X159926441Y-84154303D01*
X159927955Y-84153583D01*
X160088315Y-84063923D01*
X160089657Y-84063058D01*
X160261380Y-83936364D01*
X160262418Y-83935509D01*
X160441401Y-83771573D01*
X160777765Y-84107937D01*
G37*
%TD.AperFunction*%
%TD*%
D15*
%TO.N,Net-(D2-Pad1)*%
X158659222Y-88800731D02*
X158570264Y-88954564D01*
X158460323Y-89103156D01*
X158343563Y-89242002D01*
X158230204Y-89373744D01*
X158229831Y-89374198D01*
X158130108Y-89501562D01*
X158129235Y-89502828D01*
X158053276Y-89628676D01*
X158052092Y-89631248D01*
X158009964Y-89758507D01*
X158009417Y-89760936D01*
X158009322Y-89762669D01*
X158011094Y-89894270D01*
X158011372Y-89896744D01*
X158012007Y-89898830D01*
X158067745Y-90037701D01*
X158068894Y-90039909D01*
X158069631Y-90040925D01*
X158182270Y-90181116D01*
X157775240Y-90588146D01*
X157583999Y-90388328D01*
X157424763Y-90202967D01*
X157298709Y-90034810D01*
X157198215Y-89877392D01*
X157115643Y-89724169D01*
X157043365Y-89568527D01*
X156973863Y-89404052D01*
X156899583Y-89224295D01*
X156899513Y-89224128D01*
X156812988Y-89022896D01*
X156812841Y-89022567D01*
X156710179Y-88801354D01*
X157685000Y-87787660D01*
X158659222Y-88800731D01*
%TA.AperFunction,Conductor*%
D16*
G36*
X158659222Y-88800731D02*
G01*
X158570264Y-88954564D01*
X158460323Y-89103156D01*
X158343563Y-89242002D01*
X158230204Y-89373744D01*
X158229831Y-89374198D01*
X158130108Y-89501562D01*
X158129235Y-89502828D01*
X158053276Y-89628676D01*
X158052092Y-89631248D01*
X158009964Y-89758507D01*
X158009417Y-89760936D01*
X158009322Y-89762669D01*
X158011094Y-89894270D01*
X158011372Y-89896744D01*
X158012007Y-89898830D01*
X158067745Y-90037701D01*
X158068894Y-90039909D01*
X158069631Y-90040925D01*
X158182270Y-90181116D01*
X157775240Y-90588146D01*
X157583999Y-90388328D01*
X157424763Y-90202967D01*
X157298709Y-90034810D01*
X157198215Y-89877392D01*
X157115643Y-89724169D01*
X157043365Y-89568527D01*
X156973863Y-89404052D01*
X156899583Y-89224295D01*
X156899513Y-89224128D01*
X156812988Y-89022896D01*
X156812841Y-89022567D01*
X156710179Y-88801354D01*
X157685000Y-87787660D01*
X158659222Y-88800731D01*
G37*
%TD.AperFunction*%
%TD*%
M02*
