%TF.GenerationSoftware,KiCad,Pcbnew,(5.1.9)-1*%
%TF.CreationDate,2022-04-17T16:00:32-05:00*%
%TF.ProjectId,joy-esd-v2,6a6f792d-6573-4642-9d76-322e6b696361,rev?*%
%TF.SameCoordinates,Original*%
%TF.FileFunction,Legend,Bot*%
%TF.FilePolarity,Positive*%
%FSLAX46Y46*%
G04 Gerber Fmt 4.6, Leading zero omitted, Abs format (unit mm)*
G04 Created by KiCad (PCBNEW (5.1.9)-1) date 2022-04-17 16:00:32*
%MOMM*%
%LPD*%
G01*
G04 APERTURE LIST*
%ADD10C,0.150000*%
%ADD11C,2.200000*%
G04 APERTURE END LIST*
D10*
X159651238Y-83127904D02*
X159651238Y-83699333D01*
X159689333Y-83813619D01*
X159765523Y-83889809D01*
X159879809Y-83927904D01*
X159956000Y-83927904D01*
X158889333Y-83927904D02*
X159270285Y-83927904D01*
X159270285Y-83127904D01*
X158165523Y-83851714D02*
X158203619Y-83889809D01*
X158317904Y-83927904D01*
X158394095Y-83927904D01*
X158508380Y-83889809D01*
X158584571Y-83813619D01*
X158622666Y-83737428D01*
X158660761Y-83585047D01*
X158660761Y-83470761D01*
X158622666Y-83318380D01*
X158584571Y-83242190D01*
X158508380Y-83166000D01*
X158394095Y-83127904D01*
X158317904Y-83127904D01*
X158203619Y-83166000D01*
X158165523Y-83204095D01*
X157594095Y-83127904D02*
X157594095Y-83699333D01*
X157632190Y-83813619D01*
X157708380Y-83889809D01*
X157822666Y-83927904D01*
X157898857Y-83927904D01*
X156832190Y-83927904D02*
X157213142Y-83927904D01*
X157213142Y-83127904D01*
X156108380Y-83851714D02*
X156146476Y-83889809D01*
X156260761Y-83927904D01*
X156336952Y-83927904D01*
X156451238Y-83889809D01*
X156527428Y-83813619D01*
X156565523Y-83737428D01*
X156603619Y-83585047D01*
X156603619Y-83470761D01*
X156565523Y-83318380D01*
X156527428Y-83242190D01*
X156451238Y-83166000D01*
X156336952Y-83127904D01*
X156260761Y-83127904D01*
X156146476Y-83166000D01*
X156108380Y-83204095D01*
X155536952Y-83127904D02*
X155536952Y-83699333D01*
X155575047Y-83813619D01*
X155651238Y-83889809D01*
X155765523Y-83927904D01*
X155841714Y-83927904D01*
X154775047Y-83927904D02*
X155156000Y-83927904D01*
X155156000Y-83127904D01*
X154051238Y-83851714D02*
X154089333Y-83889809D01*
X154203619Y-83927904D01*
X154279809Y-83927904D01*
X154394095Y-83889809D01*
X154470285Y-83813619D01*
X154508380Y-83737428D01*
X154546476Y-83585047D01*
X154546476Y-83470761D01*
X154508380Y-83318380D01*
X154470285Y-83242190D01*
X154394095Y-83166000D01*
X154279809Y-83127904D01*
X154203619Y-83127904D01*
X154089333Y-83166000D01*
X154051238Y-83204095D01*
X153479809Y-83127904D02*
X153479809Y-83699333D01*
X153517904Y-83813619D01*
X153594095Y-83889809D01*
X153708380Y-83927904D01*
X153784571Y-83927904D01*
X152717904Y-83927904D02*
X153098857Y-83927904D01*
X153098857Y-83127904D01*
X151994095Y-83851714D02*
X152032190Y-83889809D01*
X152146476Y-83927904D01*
X152222666Y-83927904D01*
X152336952Y-83889809D01*
X152413142Y-83813619D01*
X152451238Y-83737428D01*
X152489333Y-83585047D01*
X152489333Y-83470761D01*
X152451238Y-83318380D01*
X152413142Y-83242190D01*
X152336952Y-83166000D01*
X152222666Y-83127904D01*
X152146476Y-83127904D01*
X152032190Y-83166000D01*
X151994095Y-83204095D01*
X162013142Y-91126904D02*
X162013142Y-90326904D01*
X161670285Y-91126904D02*
X161670285Y-90707857D01*
X161708380Y-90631666D01*
X161784571Y-90593571D01*
X161898857Y-90593571D01*
X161975047Y-90631666D01*
X162013142Y-90669761D01*
X161403619Y-90593571D02*
X161098857Y-90593571D01*
X161289333Y-90326904D02*
X161289333Y-91012619D01*
X161251238Y-91088809D01*
X161175047Y-91126904D01*
X161098857Y-91126904D01*
X160946476Y-90593571D02*
X160641714Y-90593571D01*
X160832190Y-90326904D02*
X160832190Y-91012619D01*
X160794095Y-91088809D01*
X160717904Y-91126904D01*
X160641714Y-91126904D01*
X160375047Y-90593571D02*
X160375047Y-91393571D01*
X160375047Y-90631666D02*
X160298857Y-90593571D01*
X160146476Y-90593571D01*
X160070285Y-90631666D01*
X160032190Y-90669761D01*
X159994095Y-90745952D01*
X159994095Y-90974523D01*
X160032190Y-91050714D01*
X160070285Y-91088809D01*
X160146476Y-91126904D01*
X160298857Y-91126904D01*
X160375047Y-91088809D01*
X159689333Y-91088809D02*
X159613142Y-91126904D01*
X159460761Y-91126904D01*
X159384571Y-91088809D01*
X159346476Y-91012619D01*
X159346476Y-90974523D01*
X159384571Y-90898333D01*
X159460761Y-90860238D01*
X159575047Y-90860238D01*
X159651238Y-90822142D01*
X159689333Y-90745952D01*
X159689333Y-90707857D01*
X159651238Y-90631666D01*
X159575047Y-90593571D01*
X159460761Y-90593571D01*
X159384571Y-90631666D01*
X159003619Y-91050714D02*
X158965523Y-91088809D01*
X159003619Y-91126904D01*
X159041714Y-91088809D01*
X159003619Y-91050714D01*
X159003619Y-91126904D01*
X159003619Y-90631666D02*
X158965523Y-90669761D01*
X159003619Y-90707857D01*
X159041714Y-90669761D01*
X159003619Y-90631666D01*
X159003619Y-90707857D01*
X158051238Y-90288809D02*
X158736952Y-91317380D01*
X157213142Y-90288809D02*
X157898857Y-91317380D01*
X156603619Y-90593571D02*
X156603619Y-91241190D01*
X156641714Y-91317380D01*
X156679809Y-91355476D01*
X156756000Y-91393571D01*
X156870285Y-91393571D01*
X156946476Y-91355476D01*
X156603619Y-91088809D02*
X156679809Y-91126904D01*
X156832190Y-91126904D01*
X156908380Y-91088809D01*
X156946476Y-91050714D01*
X156984571Y-90974523D01*
X156984571Y-90745952D01*
X156946476Y-90669761D01*
X156908380Y-90631666D01*
X156832190Y-90593571D01*
X156679809Y-90593571D01*
X156603619Y-90631666D01*
X156222666Y-91126904D02*
X156222666Y-90593571D01*
X156222666Y-90326904D02*
X156260761Y-90365000D01*
X156222666Y-90403095D01*
X156184571Y-90365000D01*
X156222666Y-90326904D01*
X156222666Y-90403095D01*
X155956000Y-90593571D02*
X155651238Y-90593571D01*
X155841714Y-90326904D02*
X155841714Y-91012619D01*
X155803619Y-91088809D01*
X155727428Y-91126904D01*
X155651238Y-91126904D01*
X155384571Y-91126904D02*
X155384571Y-90326904D01*
X155041714Y-91126904D02*
X155041714Y-90707857D01*
X155079809Y-90631666D01*
X155156000Y-90593571D01*
X155270285Y-90593571D01*
X155346476Y-90631666D01*
X155384571Y-90669761D01*
X154317904Y-90593571D02*
X154317904Y-91126904D01*
X154660761Y-90593571D02*
X154660761Y-91012619D01*
X154622666Y-91088809D01*
X154546476Y-91126904D01*
X154432190Y-91126904D01*
X154356000Y-91088809D01*
X154317904Y-91050714D01*
X153936952Y-91126904D02*
X153936952Y-90326904D01*
X153936952Y-90631666D02*
X153860761Y-90593571D01*
X153708380Y-90593571D01*
X153632190Y-90631666D01*
X153594095Y-90669761D01*
X153556000Y-90745952D01*
X153556000Y-90974523D01*
X153594095Y-91050714D01*
X153632190Y-91088809D01*
X153708380Y-91126904D01*
X153860761Y-91126904D01*
X153936952Y-91088809D01*
X153213142Y-91050714D02*
X153175047Y-91088809D01*
X153213142Y-91126904D01*
X153251238Y-91088809D01*
X153213142Y-91050714D01*
X153213142Y-91126904D01*
X152489333Y-91088809D02*
X152565523Y-91126904D01*
X152717904Y-91126904D01*
X152794095Y-91088809D01*
X152832190Y-91050714D01*
X152870285Y-90974523D01*
X152870285Y-90745952D01*
X152832190Y-90669761D01*
X152794095Y-90631666D01*
X152717904Y-90593571D01*
X152565523Y-90593571D01*
X152489333Y-90631666D01*
X152032190Y-91126904D02*
X152108380Y-91088809D01*
X152146476Y-91050714D01*
X152184571Y-90974523D01*
X152184571Y-90745952D01*
X152146476Y-90669761D01*
X152108380Y-90631666D01*
X152032190Y-90593571D01*
X151917904Y-90593571D01*
X151841714Y-90631666D01*
X151803619Y-90669761D01*
X151765523Y-90745952D01*
X151765523Y-90974523D01*
X151803619Y-91050714D01*
X151841714Y-91088809D01*
X151917904Y-91126904D01*
X152032190Y-91126904D01*
X151422666Y-91126904D02*
X151422666Y-90593571D01*
X151422666Y-90669761D02*
X151384571Y-90631666D01*
X151308380Y-90593571D01*
X151194095Y-90593571D01*
X151117904Y-90631666D01*
X151079809Y-90707857D01*
X151079809Y-91126904D01*
X151079809Y-90707857D02*
X151041714Y-90631666D01*
X150965523Y-90593571D01*
X150851238Y-90593571D01*
X150775047Y-90631666D01*
X150736952Y-90707857D01*
X150736952Y-91126904D01*
X149784571Y-90288809D02*
X150470285Y-91317380D01*
X162717904Y-92476904D02*
X162717904Y-91676904D01*
X162717904Y-92438809D02*
X162794095Y-92476904D01*
X162946476Y-92476904D01*
X163022666Y-92438809D01*
X163060761Y-92400714D01*
X163098857Y-92324523D01*
X163098857Y-92095952D01*
X163060761Y-92019761D01*
X163022666Y-91981666D01*
X162946476Y-91943571D01*
X162794095Y-91943571D01*
X162717904Y-91981666D01*
X162336952Y-91943571D02*
X162336952Y-92629285D01*
X162375047Y-92705476D01*
X162451238Y-92743571D01*
X162489333Y-92743571D01*
X162336952Y-91676904D02*
X162375047Y-91715000D01*
X162336952Y-91753095D01*
X162298857Y-91715000D01*
X162336952Y-91676904D01*
X162336952Y-91753095D01*
X162070285Y-91943571D02*
X161765523Y-91943571D01*
X161956000Y-91676904D02*
X161956000Y-92362619D01*
X161917904Y-92438809D01*
X161841714Y-92476904D01*
X161765523Y-92476904D01*
X161194095Y-92438809D02*
X161270285Y-92476904D01*
X161422666Y-92476904D01*
X161498857Y-92438809D01*
X161536952Y-92362619D01*
X161536952Y-92057857D01*
X161498857Y-91981666D01*
X161422666Y-91943571D01*
X161270285Y-91943571D01*
X161194095Y-91981666D01*
X161156000Y-92057857D01*
X161156000Y-92134047D01*
X161536952Y-92210238D01*
X160813142Y-92476904D02*
X160813142Y-91943571D01*
X160813142Y-92095952D02*
X160775047Y-92019761D01*
X160736952Y-91981666D01*
X160660761Y-91943571D01*
X160584571Y-91943571D01*
X160356000Y-92438809D02*
X160279809Y-92476904D01*
X160127428Y-92476904D01*
X160051238Y-92438809D01*
X160013142Y-92362619D01*
X160013142Y-92324523D01*
X160051238Y-92248333D01*
X160127428Y-92210238D01*
X160241714Y-92210238D01*
X160317904Y-92172142D01*
X160356000Y-92095952D01*
X160356000Y-92057857D01*
X160317904Y-91981666D01*
X160241714Y-91943571D01*
X160127428Y-91943571D01*
X160051238Y-91981666D01*
X159784571Y-91943571D02*
X159479809Y-91943571D01*
X159670285Y-91676904D02*
X159670285Y-92362619D01*
X159632190Y-92438809D01*
X159556000Y-92476904D01*
X159479809Y-92476904D01*
X158908380Y-92438809D02*
X158984571Y-92476904D01*
X159136952Y-92476904D01*
X159213142Y-92438809D01*
X159251238Y-92362619D01*
X159251238Y-92057857D01*
X159213142Y-91981666D01*
X159136952Y-91943571D01*
X158984571Y-91943571D01*
X158908380Y-91981666D01*
X158870285Y-92057857D01*
X158870285Y-92134047D01*
X159251238Y-92210238D01*
X158222666Y-92438809D02*
X158298857Y-92476904D01*
X158451238Y-92476904D01*
X158527428Y-92438809D01*
X158565523Y-92362619D01*
X158565523Y-92057857D01*
X158527428Y-91981666D01*
X158451238Y-91943571D01*
X158298857Y-91943571D01*
X158222666Y-91981666D01*
X158184571Y-92057857D01*
X158184571Y-92134047D01*
X158565523Y-92210238D01*
X157498857Y-91943571D02*
X157498857Y-92591190D01*
X157536952Y-92667380D01*
X157575047Y-92705476D01*
X157651238Y-92743571D01*
X157765523Y-92743571D01*
X157841714Y-92705476D01*
X157498857Y-92438809D02*
X157575047Y-92476904D01*
X157727428Y-92476904D01*
X157803619Y-92438809D01*
X157841714Y-92400714D01*
X157879809Y-92324523D01*
X157879809Y-92095952D01*
X157841714Y-92019761D01*
X157803619Y-91981666D01*
X157727428Y-91943571D01*
X157575047Y-91943571D01*
X157498857Y-91981666D01*
X156775047Y-92438809D02*
X156851238Y-92476904D01*
X157003619Y-92476904D01*
X157079809Y-92438809D01*
X157117904Y-92400714D01*
X157156000Y-92324523D01*
X157156000Y-92095952D01*
X157117904Y-92019761D01*
X157079809Y-91981666D01*
X157003619Y-91943571D01*
X156851238Y-91943571D01*
X156775047Y-91981666D01*
X155860761Y-91638809D02*
X156546476Y-92667380D01*
X155594095Y-91943571D02*
X155594095Y-92629285D01*
X155632190Y-92705476D01*
X155708380Y-92743571D01*
X155746476Y-92743571D01*
X155594095Y-91676904D02*
X155632190Y-91715000D01*
X155594095Y-91753095D01*
X155556000Y-91715000D01*
X155594095Y-91676904D01*
X155594095Y-91753095D01*
X155098857Y-92476904D02*
X155175047Y-92438809D01*
X155213142Y-92400714D01*
X155251238Y-92324523D01*
X155251238Y-92095952D01*
X155213142Y-92019761D01*
X155175047Y-91981666D01*
X155098857Y-91943571D01*
X154984571Y-91943571D01*
X154908380Y-91981666D01*
X154870285Y-92019761D01*
X154832190Y-92095952D01*
X154832190Y-92324523D01*
X154870285Y-92400714D01*
X154908380Y-92438809D01*
X154984571Y-92476904D01*
X155098857Y-92476904D01*
X154565523Y-91943571D02*
X154375047Y-92476904D01*
X154184571Y-91943571D02*
X154375047Y-92476904D01*
X154451238Y-92667380D01*
X154489333Y-92705476D01*
X154565523Y-92743571D01*
X153879809Y-92172142D02*
X153270285Y-92172142D01*
X152584571Y-92438809D02*
X152660761Y-92476904D01*
X152813142Y-92476904D01*
X152889333Y-92438809D01*
X152927428Y-92362619D01*
X152927428Y-92057857D01*
X152889333Y-91981666D01*
X152813142Y-91943571D01*
X152660761Y-91943571D01*
X152584571Y-91981666D01*
X152546476Y-92057857D01*
X152546476Y-92134047D01*
X152927428Y-92210238D01*
X152241714Y-92438809D02*
X152165523Y-92476904D01*
X152013142Y-92476904D01*
X151936952Y-92438809D01*
X151898857Y-92362619D01*
X151898857Y-92324523D01*
X151936952Y-92248333D01*
X152013142Y-92210238D01*
X152127428Y-92210238D01*
X152203619Y-92172142D01*
X152241714Y-92095952D01*
X152241714Y-92057857D01*
X152203619Y-91981666D01*
X152127428Y-91943571D01*
X152013142Y-91943571D01*
X151936952Y-91981666D01*
X151213142Y-92476904D02*
X151213142Y-91676904D01*
X151213142Y-92438809D02*
X151289333Y-92476904D01*
X151441714Y-92476904D01*
X151517904Y-92438809D01*
X151556000Y-92400714D01*
X151594095Y-92324523D01*
X151594095Y-92095952D01*
X151556000Y-92019761D01*
X151517904Y-91981666D01*
X151441714Y-91943571D01*
X151289333Y-91943571D01*
X151213142Y-91981666D01*
X150832190Y-92172142D02*
X150222666Y-92172142D01*
X149917904Y-91943571D02*
X149727428Y-92476904D01*
X149536952Y-91943571D01*
X149270285Y-91753095D02*
X149232190Y-91715000D01*
X149156000Y-91676904D01*
X148965523Y-91676904D01*
X148889333Y-91715000D01*
X148851238Y-91753095D01*
X148813142Y-91829285D01*
X148813142Y-91905476D01*
X148851238Y-92019761D01*
X149308380Y-92476904D01*
X148813142Y-92476904D01*
%LPC*%
D11*
%TO.C,J1*%
X152145000Y-88319338D03*
X154915000Y-88319338D03*
X157685000Y-88319338D03*
X160455000Y-88319338D03*
X150760000Y-85479338D03*
X153530000Y-85479338D03*
X156300000Y-85479338D03*
X159070000Y-85479338D03*
X161840000Y-85479338D03*
%TD*%
M02*
