%TF.GenerationSoftware,KiCad,Pcbnew,(5.1.9)-1*%
%TF.CreationDate,2022-04-02T15:48:07-05:00*%
%TF.ProjectId,joy-esd-v2,6a6f792d-6573-4642-9d76-322e6b696361,rev?*%
%TF.SameCoordinates,Original*%
%TF.FileFunction,Copper,L1,Top*%
%TF.FilePolarity,Positive*%
%FSLAX46Y46*%
G04 Gerber Fmt 4.6, Leading zero omitted, Abs format (unit mm)*
G04 Created by KiCad (PCBNEW (5.1.9)-1) date 2022-04-02 15:48:07*
%MOMM*%
%LPD*%
G01*
G04 APERTURE LIST*
%TA.AperFunction,SMDPad,CuDef*%
%ADD10R,1.200000X0.600000*%
%TD*%
%TA.AperFunction,ComponentPad*%
%ADD11C,2.200000*%
%TD*%
%TA.AperFunction,Conductor*%
%ADD12C,0.600000*%
%TD*%
%TA.AperFunction,Conductor*%
%ADD13C,0.500000*%
%TD*%
%TA.AperFunction,Conductor*%
%ADD14C,1.000000*%
%TD*%
G04 APERTURE END LIST*
D10*
%TO.P,D2,6*%
%TO.N,Net-(D2-Pad6)*%
X160762000Y-90744000D03*
%TO.P,D2,5*%
%TO.N,Net-(D2-Pad5)*%
X160762000Y-91694000D03*
%TO.P,D2,4*%
%TO.N,Net-(D2-Pad4)*%
X160762000Y-92644000D03*
%TO.P,D2,3*%
%TO.N,Net-(D2-Pad3)*%
X158262000Y-92644000D03*
%TO.P,D2,2*%
%TO.N,GND*%
X158262000Y-91694000D03*
%TO.P,D2,1*%
%TO.N,Net-(D2-Pad1)*%
X158262000Y-90744000D03*
%TD*%
%TO.P,D1,6*%
%TO.N,Net-(D1-Pad6)*%
X150896000Y-92644000D03*
%TO.P,D1,5*%
%TO.N,Net-(D1-Pad5)*%
X150896000Y-91694000D03*
%TO.P,D1,4*%
%TO.N,Net-(D1-Pad4)*%
X150896000Y-90744000D03*
%TO.P,D1,3*%
%TO.N,Net-(D1-Pad3)*%
X153396000Y-90744000D03*
%TO.P,D1,2*%
%TO.N,GND*%
X153396000Y-91694000D03*
%TO.P,D1,1*%
%TO.N,Net-(D1-Pad1)*%
X153396000Y-92644000D03*
%TD*%
%TO.P,TP1,1*%
%TO.N,GND*%
%TA.AperFunction,SMDPad,CuDef*%
G36*
G01*
X155456000Y-93206000D02*
X155456000Y-91706000D01*
G75*
G02*
X155706000Y-91456000I250000J0D01*
G01*
X156206000Y-91456000D01*
G75*
G02*
X156456000Y-91706000I0J-250000D01*
G01*
X156456000Y-93206000D01*
G75*
G02*
X156206000Y-93456000I-250000J0D01*
G01*
X155706000Y-93456000D01*
G75*
G02*
X155456000Y-93206000I0J250000D01*
G01*
G37*
%TD.AperFunction*%
%TD*%
D11*
%TO.P,J1,9*%
%TO.N,Net-(D1-Pad3)*%
X152145000Y-88319338D03*
%TO.P,J1,8*%
%TO.N,GND*%
X154915000Y-88319338D03*
%TO.P,J1,7*%
%TO.N,Net-(D2-Pad1)*%
X157685000Y-88319338D03*
%TO.P,J1,6*%
%TO.N,Net-(D2-Pad6)*%
X160455000Y-88319338D03*
%TO.P,J1,5*%
%TO.N,Net-(D1-Pad4)*%
X150760000Y-85479338D03*
%TO.P,J1,4*%
%TO.N,Net-(D1-Pad6)*%
X153530000Y-85479338D03*
%TO.P,J1,3*%
%TO.N,Net-(D1-Pad1)*%
X156300000Y-85479338D03*
%TO.P,J1,2*%
%TO.N,Net-(D2-Pad3)*%
X159070000Y-85479338D03*
%TO.P,J1,1*%
%TO.N,Net-(D2-Pad4)*%
X161840000Y-85479338D03*
%TD*%
D12*
%TO.N,Net-(D1-Pad3)*%
X152145000Y-89568000D02*
X153321000Y-90744000D01*
X152145000Y-88319338D02*
X152145000Y-89568000D01*
%TO.N,Net-(D2-Pad1)*%
X157685000Y-90092000D02*
X158337000Y-90744000D01*
X157685000Y-88319338D02*
X157685000Y-90092000D01*
%TO.N,Net-(D2-Pad6)*%
X160687000Y-88551338D02*
X160455000Y-88319338D01*
X160687000Y-90744000D02*
X160687000Y-88551338D01*
%TO.N,Net-(D1-Pad4)*%
X150266400Y-85972938D02*
X150760000Y-85479338D01*
X150266400Y-90039400D02*
X150266400Y-85972938D01*
X150971000Y-90744000D02*
X150266400Y-90039400D01*
D13*
%TO.N,Net-(D1-Pad1)*%
X149733000Y-83210400D02*
X154031062Y-83210400D01*
X148488400Y-84455000D02*
X149733000Y-83210400D01*
X154031062Y-83210400D02*
X156300000Y-85479338D01*
X148488400Y-92205402D02*
X148488400Y-84455000D01*
X149678798Y-93395800D02*
X148488400Y-92205402D01*
X152823200Y-93395800D02*
X149678798Y-93395800D01*
X153321000Y-92898000D02*
X152823200Y-93395800D01*
D12*
%TO.N,GND*%
X154601000Y-91694000D02*
X154915000Y-91380000D01*
X154915000Y-89552000D02*
X154915000Y-88319338D01*
X157057000Y-91694000D02*
X154915000Y-89552000D01*
X158337000Y-91694000D02*
X157057000Y-91694000D01*
X154915000Y-90703000D02*
X155194000Y-90424000D01*
X154915000Y-91380000D02*
X154915000Y-90703000D01*
X154915000Y-90703000D02*
X154915000Y-88319338D01*
X155194000Y-90424000D02*
X155194000Y-90932000D01*
X155194000Y-90932000D02*
X155448000Y-90678000D01*
X155194000Y-90932000D02*
X155702000Y-90932000D01*
X155702000Y-90932000D02*
X155448000Y-91186000D01*
X155109000Y-91186000D02*
X154915000Y-91380000D01*
X155448000Y-91186000D02*
X155109000Y-91186000D01*
X155109000Y-91186000D02*
X155956000Y-91186000D01*
X155956000Y-91186000D02*
X156210000Y-91440000D01*
D13*
X154178000Y-91677002D02*
X154178000Y-91694000D01*
X154915000Y-90703000D02*
X154915000Y-90940002D01*
D12*
X154178000Y-91694000D02*
X154601000Y-91694000D01*
X153321000Y-91694000D02*
X154178000Y-91694000D01*
D13*
X154915000Y-90940002D02*
X154178000Y-91677002D01*
X155956000Y-92456000D02*
X155194000Y-91694000D01*
D12*
X154601000Y-91694000D02*
X155194000Y-91694000D01*
D13*
X156718000Y-91694000D02*
X156972000Y-91694000D01*
X155956000Y-92456000D02*
X156718000Y-91694000D01*
D12*
X156972000Y-91694000D02*
X157057000Y-91694000D01*
X155194000Y-91694000D02*
X156972000Y-91694000D01*
D14*
X154915000Y-88319338D02*
X154915000Y-91380000D01*
D13*
%TO.N,Net-(D1-Pad6)*%
X151979999Y-83929337D02*
X153530000Y-85479338D01*
X149209999Y-84735337D02*
X150015999Y-83929337D01*
X149209999Y-91805999D02*
X149209999Y-84735337D01*
X150015999Y-83929337D02*
X151979999Y-83929337D01*
X150048000Y-92644000D02*
X149209999Y-91805999D01*
X150971000Y-92644000D02*
X150048000Y-92644000D01*
%TO.N,Net-(D2-Pad4)*%
X160687000Y-92644000D02*
X161102000Y-92644000D01*
X161522002Y-92644000D02*
X160762000Y-92644000D01*
X162306000Y-91860002D02*
X161522002Y-92644000D01*
X162306000Y-85945338D02*
X162306000Y-91860002D01*
X161840000Y-85479338D02*
X162306000Y-85945338D01*
%TO.N,Net-(D2-Pad3)*%
X160983338Y-83566000D02*
X159070000Y-85479338D01*
X159087001Y-93394001D02*
X161761966Y-93394001D01*
X158337000Y-92644000D02*
X159087001Y-93394001D01*
X161761966Y-93394001D02*
X163390001Y-91765966D01*
X163390001Y-84650001D02*
X162306000Y-83566000D01*
X162306000Y-83566000D02*
X160983338Y-83566000D01*
X163390001Y-91765966D02*
X163390001Y-84650001D01*
%TD*%
M02*
